<svg xmlns="http://www.w3.org/2000/svg" width="26.532" height="25.869" viewBox="0 0 26.532 25.869"><path d="M8.874,28.83c0,.107-.123.193-.278.193-.177.016-.3-.07-.3-.193,0-.107.123-.193.278-.193C8.735,28.621,8.874,28.707,8.874,28.83Zm-1.664-.241c-.037.107.07.23.23.262a.251.251,0,0,0,.332-.107c.032-.107-.07-.23-.23-.278A.275.275,0,0,0,7.211,28.589ZM9.575,28.5c-.155.037-.262.139-.246.262.016.107.155.177.316.139s.262-.139.246-.246S9.73,28.482,9.575,28.5ZM13.095,8A12.827,12.827,0,0,0,0,21.052a13.411,13.411,0,0,0,9.067,12.8c.685.123.925-.3.925-.647,0-.332-.016-2.161-.016-3.284,0,0-3.744.8-4.531-1.594,0,0-.61-1.557-1.487-1.958,0,0-1.225-.84.086-.824a2.824,2.824,0,0,1,2.065,1.38,2.828,2.828,0,0,0,3.9,1.118,2.973,2.973,0,0,1,.856-1.8c-2.99-.332-6.007-.765-6.007-5.911A4.054,4.054,0,0,1,6.12,17.174a5.054,5.054,0,0,1,.139-3.632c1.118-.348,3.691,1.444,3.691,1.444a12.637,12.637,0,0,1,6.719,0s2.573-1.8,3.691-1.444a5.052,5.052,0,0,1,.139,3.632,4.158,4.158,0,0,1,1.38,3.151c0,5.162-3.151,5.574-6.141,5.911a3.163,3.163,0,0,1,.909,2.482c0,1.8-.016,4.033-.016,4.472,0,.348.246.77.925.647a13.288,13.288,0,0,0,8.976-12.785A13.116,13.116,0,0,0,13.095,8ZM5.2,26.45c-.07.053-.053.177.037.278.086.086.209.123.278.053.07-.053.053-.177-.037-.278C5.392,26.417,5.269,26.38,5.2,26.45Zm-.578-.433c-.037.07.016.155.123.209a.159.159,0,0,0,.23-.037c.037-.07-.016-.155-.123-.209C4.745,25.947,4.659,25.963,4.622,26.016Zm1.733,1.9c-.086.07-.053.23.07.332.123.123.278.139.348.053.07-.07.037-.23-.07-.332C6.585,27.851,6.424,27.835,6.355,27.921Zm-.61-.786c-.086.053-.086.193,0,.316s.23.177.3.123a.244.244,0,0,0,0-.332C5.97,27.118,5.831,27.065,5.745,27.134Z" transform="translate(0 -8)"/></svg>