<svg xmlns="http://www.w3.org/2000/svg" width="25.723" height="25.717" viewBox="0 0 25.723 25.717"><path d="M12.789,38.09a6.594,6.594,0,1,0,6.594,6.594A6.583,6.583,0,0,0,12.789,38.09Zm0,10.88a4.287,4.287,0,1,1,4.287-4.287,4.294,4.294,0,0,1-4.287,4.287Zm8.4-11.15a1.538,1.538,0,1,1-1.538-1.538A1.534,1.534,0,0,1,21.19,37.82Zm4.367,1.561a7.611,7.611,0,0,0-2.077-5.388,7.661,7.661,0,0,0-5.388-2.077c-2.123-.121-8.487-.121-10.61,0a7.65,7.65,0,0,0-5.388,2.072A7.636,7.636,0,0,0,.015,39.375c-.121,2.123-.121,8.487,0,10.61a7.611,7.611,0,0,0,2.077,5.388,7.671,7.671,0,0,0,5.388,2.077c2.123.121,8.487.121,10.61,0a7.611,7.611,0,0,0,5.388-2.077,7.661,7.661,0,0,0,2.077-5.388C25.678,47.863,25.678,41.5,25.557,39.381ZM22.814,52.264a4.34,4.34,0,0,1-2.445,2.445c-1.693.671-5.71.516-7.581.516s-5.893.149-7.581-.516a4.34,4.34,0,0,1-2.445-2.445c-.671-1.693-.516-5.71-.516-7.581S2.1,38.79,2.764,37.1a4.34,4.34,0,0,1,2.445-2.445c1.693-.671,5.71-.516,7.581-.516s5.893-.149,7.581.516A4.34,4.34,0,0,1,22.814,37.1c.671,1.693.516,5.71.516,7.581S23.486,50.577,22.814,52.264Z" transform="translate(0.075 -31.825)"/></svg>