<svg xmlns="http://www.w3.org/2000/svg" width="32.133" height="28.563" viewBox="0 0 32.133 28.563"><path d="M32.133,1.339v7.14a1.34,1.34,0,0,1-2.286.947L27.855,7.433,14.27,21.018a1.339,1.339,0,0,1-1.893,0l-1.262-1.262a1.339,1.339,0,0,1,0-1.893L24.7,4.277,22.708,2.286A1.34,1.34,0,0,1,23.655,0h7.139A1.339,1.339,0,0,1,32.133,1.339ZM22.707,15.107,21.814,16a1.339,1.339,0,0,0-.392.947v8.046H3.57V7.141H18.3a1.339,1.339,0,0,0,.947-.392l.893-.893A1.339,1.339,0,0,0,19.19,3.57H2.678A2.678,2.678,0,0,0,0,6.248V25.885a2.678,2.678,0,0,0,2.678,2.678H22.314a2.678,2.678,0,0,0,2.678-2.678V16.053A1.339,1.339,0,0,0,22.707,15.107Z" fill="#fff"/></svg>