<svg xmlns="http://www.w3.org/2000/svg" width="37.381" height="23.434" viewBox="0 0 37.381 23.434"><path d="M15.056,85.9A4.925,4.925,0,0,0,18.2,81.1c0-4.582-3.414-5.7-7.353-5.7H0v23H11.149c4.179,0,8.106-2.005,8.106-6.678C19.255,88.834,17.886,86.7,15.056,85.9Zm-10-6.574H9.8c1.824,0,3.466.513,3.466,2.628,0,1.953-1.278,2.739-3.083,2.739H5.056V79.326Zm5.406,15.166H5.056V88.159h5.51c2.226,0,3.634.928,3.634,3.284,0,2.323-1.681,3.05-3.738,3.05ZM33.727,78.872H24.4V76.607h9.326Zm3.654,11.441c0-4.926-2.881-9.034-8.106-9.034-5.075,0-8.521,3.816-8.521,8.813,0,5.185,3.264,8.742,8.521,8.742,3.978,0,6.555-1.791,7.794-5.6H33.033c-.435,1.421-2.226,2.174-3.615,2.174-2.68,0-4.089-1.571-4.089-4.238H37.342C37.361,90.9,37.381,90.605,37.381,90.313ZM25.336,88.289a3.574,3.574,0,0,1,3.8-3.556c2.3,0,3.453,1.35,3.647,3.556Z" transform="translate(0 -75.4)"/></svg>