<svg xmlns="http://www.w3.org/2000/svg" width="24.446" height="24.446" viewBox="0 0 24.446 24.446"><path d="M20.223,8A12.223,12.223,0,1,0,32.446,20.223,12.237,12.237,0,0,0,20.223,8ZM28.3,13.637a10.391,10.391,0,0,1,2.358,6.5,24.4,24.4,0,0,0-7.27-.336c-.284-.692-.551-1.3-.918-2.051a13.907,13.907,0,0,0,5.83-4.117Zm-1.161-1.207A11.788,11.788,0,0,1,21.672,16.2a55.729,55.729,0,0,0-3.9-6.112A10.413,10.413,0,0,1,27.144,12.429Zm-11.36-1.639a66.617,66.617,0,0,1,3.871,6.038A38.943,38.943,0,0,1,10,18.1,10.479,10.479,0,0,1,15.784,10.791Zm-6,9.448c0-.107,0-.213.005-.319a38.513,38.513,0,0,0,10.73-1.486c.3.585.584,1.179.846,1.772a16.172,16.172,0,0,0-8.9,7.014A10.4,10.4,0,0,1,9.783,20.239Zm4.032,8.236c1.091-2.229,4.05-5.107,8.259-6.543A43.4,43.4,0,0,1,24.3,29.85,10.419,10.419,0,0,1,13.815,28.476Zm12.242.418a45.061,45.061,0,0,0-2.028-7.444,15.324,15.324,0,0,1,6.5.446A10.459,10.459,0,0,1,26.057,28.894Z" transform="translate(-8 -8)"/></svg>